<svg id="svg" version="1.1" xmlns="http://www.w3.org/2000/svg" xmlns:xlink="http://www.w3.org/1999/xlink" width="400" height="400" viewBox="0, 0, 400,400"><g id="svgg"><path id="path0" d="M26.900 183.700 L 27.000 367.400 43.700 367.504 L 60.400 367.609 60.400 383.804 L 60.400 400.000 61.440 400.000 C 62.638 400.000,65.200 398.879,65.200 398.354 C 65.200 398.159,65.436 398.000,65.725 398.000 C 66.013 398.000,66.598 397.685,67.025 397.300 C 67.451 396.915,68.295 396.345,68.900 396.032 C 69.505 395.720,70.000 395.315,70.000 395.132 C 70.000 394.950,70.236 394.800,70.525 394.800 C 70.813 394.800,71.436 394.440,71.908 394.000 C 72.380 393.560,72.954 393.200,73.183 393.200 C 73.412 393.200,73.600 393.041,73.600 392.846 C 73.600 392.651,74.185 392.196,74.900 391.835 C 75.615 391.473,76.500 390.969,76.866 390.713 C 77.567 390.223,80.800 391.331,80.800 392.061 C 80.800 392.247,81.036 392.400,81.325 392.400 C 81.613 392.400,82.198 392.715,82.625 393.100 C 83.051 393.485,83.895 394.055,84.500 394.368 C 85.105 394.680,85.600 395.085,85.600 395.268 C 85.600 395.450,85.836 395.600,86.125 395.600 C 86.413 395.600,86.998 395.915,87.425 396.300 C 87.851 396.685,88.695 397.255,89.300 397.568 C 89.905 397.880,90.400 398.285,90.400 398.468 C 90.400 398.650,90.648 398.800,90.951 398.800 C 91.254 398.800,91.726 399.070,92.000 399.400 C 92.274 399.730,93.016 400.000,93.649 400.000 L 94.800 400.000 94.800 383.801 L 94.800 367.601 233.900 367.501 L 373.000 367.400 373.100 183.700 L 373.201 0.000 200.000 0.000 L 26.799 0.000 26.900 183.700 M126.600 123.600 C 126.736 123.820,127.152 124.001,127.524 124.002 C 127.896 124.004,128.716 124.274,129.346 124.602 C 129.976 124.931,130.670 125.200,130.888 125.200 C 131.536 125.200,137.200 131.102,137.200 131.777 C 137.200 132.120,137.380 132.400,137.600 132.400 C 137.820 132.400,138.000 132.839,138.000 133.376 C 138.000 133.913,138.180 134.464,138.400 134.600 C 138.620 134.736,138.800 135.377,138.800 136.024 C 138.800 136.671,138.980 137.200,139.200 137.200 C 139.422 137.200,139.600 138.267,139.600 139.600 C 139.600 140.933,139.422 142.000,139.200 142.000 C 138.980 142.000,138.800 142.630,138.800 143.400 C 138.800 144.170,138.620 144.800,138.400 144.800 C 138.180 144.800,138.000 145.034,138.000 145.320 C 138.000 146.056,137.059 147.993,136.700 147.997 C 136.535 147.999,136.400 148.286,136.400 148.635 C 136.400 149.397,132.122 153.600,131.346 153.600 C 131.046 153.600,130.800 153.780,130.800 154.000 C 130.800 154.220,130.440 154.400,130.000 154.400 C 129.560 154.400,129.200 154.580,129.200 154.800 C 129.200 155.020,128.660 155.200,128.000 155.200 C 127.340 155.200,126.800 155.380,126.800 155.600 C 126.800 155.848,124.600 156.000,121.000 156.000 L 115.200 156.000 115.200 163.800 L 115.200 171.600 109.000 171.600 L 102.800 171.600 102.800 147.400 L 102.800 123.200 114.576 123.200 C 121.996 123.200,126.444 123.348,126.600 123.600 M175.105 123.560 C 175.487 123.758,176.835 124.245,178.100 124.643 C 179.365 125.040,180.400 125.508,180.400 125.683 C 180.400 125.857,180.670 126.000,181.000 126.000 C 181.330 126.000,181.600 126.180,181.600 126.400 C 181.600 126.620,181.873 126.800,182.206 126.800 C 182.944 126.800,188.800 132.577,188.800 133.305 C 188.800 133.590,189.160 134.083,189.600 134.400 C 190.040 134.717,190.400 135.297,190.400 135.688 C 190.400 136.080,190.580 136.400,190.800 136.400 C 191.020 136.400,191.200 136.749,191.200 137.176 C 191.200 137.603,191.370 138.058,191.577 138.186 C 191.784 138.314,192.075 139.227,192.223 140.214 C 192.371 141.202,192.652 142.108,192.846 142.229 C 193.314 142.517,193.305 151.888,192.837 152.177 C 192.638 152.300,192.351 153.300,192.200 154.400 C 192.049 155.500,191.762 156.500,191.563 156.623 C 191.363 156.746,191.200 157.197,191.200 157.624 C 191.200 158.051,191.020 158.400,190.800 158.400 C 190.580 158.400,190.400 158.630,190.400 158.912 C 190.400 159.193,190.040 159.683,189.600 160.000 C 189.160 160.317,188.800 160.817,188.800 161.110 C 188.800 161.697,184.173 166.400,183.596 166.400 C 183.398 166.400,182.786 166.850,182.236 167.400 C 181.686 167.950,180.958 168.400,180.618 168.400 C 180.278 168.400,180.000 168.580,180.000 168.800 C 180.000 169.020,179.640 169.200,179.200 169.200 C 178.760 169.200,178.400 169.380,178.400 169.600 C 178.400 169.820,177.950 170.000,177.400 170.000 C 176.850 170.000,176.400 170.180,176.400 170.400 C 176.400 170.620,175.680 170.800,174.800 170.800 C 173.920 170.800,173.200 170.980,173.200 171.200 C 173.200 171.442,171.467 171.600,168.800 171.600 C 166.133 171.600,164.400 171.442,164.400 171.200 C 164.400 170.980,163.871 170.800,163.224 170.800 C 162.577 170.800,161.936 170.620,161.800 170.400 C 161.664 170.180,161.113 170.000,160.576 170.000 C 160.039 170.000,159.600 169.820,159.600 169.600 C 159.600 169.380,159.240 169.200,158.800 169.200 C 158.360 169.200,158.000 169.020,158.000 168.800 C 158.000 168.580,157.730 168.400,157.400 168.400 C 157.070 168.400,156.800 168.220,156.800 168.000 C 156.800 167.780,156.530 167.600,156.200 167.600 C 155.870 167.600,155.600 167.420,155.600 167.200 C 155.600 166.980,155.417 166.800,155.193 166.800 C 154.603 166.800,149.903 161.983,149.232 160.693 C 148.920 160.092,148.515 159.600,148.332 159.600 C 148.150 159.600,148.000 159.330,148.000 159.000 C 148.000 158.670,147.820 158.400,147.600 158.400 C 147.380 158.400,147.200 158.040,147.200 157.600 C 147.200 157.160,147.020 156.800,146.800 156.800 C 146.580 156.800,146.400 156.260,146.400 155.600 C 146.400 154.940,146.220 154.400,146.000 154.400 C 145.780 154.400,145.600 153.860,145.600 153.200 C 145.600 152.540,145.420 152.000,145.200 152.000 C 144.955 152.000,144.800 150.075,144.800 147.024 C 144.800 144.137,144.968 141.943,145.200 141.800 C 145.420 141.664,145.600 141.113,145.600 140.576 C 145.600 140.039,145.780 139.600,146.000 139.600 C 146.220 139.600,146.400 139.150,146.400 138.600 C 146.400 138.050,146.580 137.600,146.800 137.600 C 147.020 137.600,147.200 137.274,147.200 136.875 C 147.200 136.477,147.560 135.764,148.000 135.292 C 148.440 134.820,148.800 134.243,148.800 134.011 C 148.800 133.370,155.249 127.084,156.608 126.401 C 157.264 126.071,157.890 125.711,158.000 125.601 C 158.389 125.211,161.017 124.297,162.300 124.106 C 163.015 124.000,163.600 123.752,163.600 123.556 C 163.600 123.089,174.204 123.093,175.105 123.560 M227.000 123.600 C 227.136 123.820,227.595 124.000,228.021 124.000 C 228.989 124.000,232.000 125.282,232.000 125.694 C 232.000 125.862,232.185 126.000,232.411 126.000 C 232.995 126.000,236.092 129.202,236.768 130.505 C 237.080 131.107,237.485 131.600,237.668 131.600 C 237.850 131.600,238.000 131.960,238.000 132.400 C 238.000 132.840,238.180 133.200,238.400 133.200 C 238.620 133.200,238.800 133.639,238.800 134.176 C 238.800 134.713,238.980 135.264,239.200 135.400 C 239.425 135.539,239.600 137.471,239.600 139.824 C 239.600 142.341,239.441 144.000,239.200 144.000 C 238.980 144.000,238.800 144.324,238.800 144.720 C 238.800 145.614,237.906 147.593,237.500 147.597 C 237.335 147.599,237.200 147.855,237.200 148.167 C 237.200 148.478,237.065 148.793,236.900 148.867 C 236.735 148.940,236.096 149.675,235.480 150.500 C 234.863 151.325,234.176 152.000,233.951 152.000 C 232.998 152.000,232.244 153.258,232.730 154.036 C 232.988 154.450,233.200 155.062,233.200 155.395 C 233.200 155.728,233.380 156.000,233.600 156.000 C 233.820 156.000,234.000 156.270,234.000 156.600 C 234.000 156.930,234.180 157.200,234.400 157.200 C 234.620 157.200,234.800 157.436,234.800 157.725 C 234.800 158.013,235.160 158.636,235.600 159.108 C 236.040 159.580,236.400 160.244,236.400 160.583 C 236.400 160.922,236.580 161.200,236.800 161.200 C 237.020 161.200,237.200 161.560,237.200 162.000 C 237.200 162.440,237.380 162.800,237.600 162.800 C 237.820 162.800,238.000 163.036,238.000 163.325 C 238.000 163.613,238.360 164.236,238.800 164.708 C 239.240 165.180,239.600 165.844,239.600 166.183 C 239.600 166.522,239.780 166.800,240.000 166.800 C 240.220 166.800,240.400 167.160,240.400 167.600 C 240.400 168.040,240.559 168.400,240.754 168.400 C 241.075 168.400,242.400 170.783,242.400 171.360 C 242.400 171.492,239.507 171.600,235.971 171.600 C 229.302 171.600,228.400 171.389,228.400 169.829 C 228.400 169.483,228.220 169.200,228.000 169.200 C 227.780 169.200,227.600 168.840,227.600 168.400 C 227.600 167.960,227.420 167.600,227.200 167.600 C 226.980 167.600,226.800 167.364,226.800 167.075 C 226.800 166.787,226.440 166.164,226.000 165.692 C 225.560 165.220,225.200 164.655,225.200 164.437 C 225.200 164.218,224.650 163.086,223.978 161.920 C 223.306 160.754,222.655 159.485,222.531 159.100 C 222.408 158.715,222.148 158.400,221.953 158.400 C 221.759 158.400,221.600 158.117,221.600 157.771 C 221.600 156.404,220.557 156.000,217.029 156.000 L 213.600 156.000 213.600 163.800 L 213.600 171.600 207.800 171.600 L 202.000 171.600 202.000 147.400 L 202.000 123.200 214.376 123.200 C 222.196 123.200,226.844 123.347,227.000 123.600 M286.400 128.200 L 286.400 133.200 279.400 133.200 L 272.400 133.200 272.400 152.400 L 272.400 171.600 266.400 171.600 L 260.400 171.600 260.400 152.880 C 260.400 138.853,260.280 134.040,259.920 133.680 C 259.584 133.344,257.369 133.200,252.520 133.200 L 245.600 133.200 245.600 128.200 L 245.600 123.200 266.000 123.200 L 286.400 123.200 286.400 128.200 M115.200 139.400 L 115.200 145.600 119.640 145.600 L 124.080 145.600 125.440 144.240 C 127.911 141.769,127.136 134.000,124.418 134.000 C 124.188 134.000,124.000 133.820,124.000 133.600 C 124.000 133.358,122.267 133.200,119.600 133.200 L 115.200 133.200 115.200 139.400 M166.000 133.600 C 166.000 133.820,165.460 134.000,164.800 134.000 C 164.140 134.000,163.600 134.180,163.600 134.400 C 163.600 134.620,163.324 134.800,162.987 134.800 C 161.692 134.800,158.400 138.949,158.400 140.580 C 158.400 140.921,158.220 141.200,158.000 141.200 C 157.780 141.200,157.600 142.190,157.600 143.400 C 157.600 144.610,157.420 145.600,157.200 145.600 C 156.980 145.600,156.800 146.320,156.800 147.200 C 156.800 148.080,156.980 148.800,157.200 148.800 C 157.420 148.800,157.600 149.700,157.600 150.800 C 157.600 151.900,157.780 152.800,158.000 152.800 C 158.220 152.800,158.400 153.256,158.400 153.814 C 158.400 155.610,160.499 158.246,162.707 159.223 C 163.418 159.538,164.000 159.931,164.000 160.098 C 164.000 160.264,164.810 160.400,165.800 160.400 C 166.790 160.400,167.600 160.580,167.600 160.800 C 167.600 161.020,168.320 161.200,169.200 161.200 C 170.080 161.200,170.800 161.020,170.800 160.800 C 170.800 160.580,171.520 160.400,172.400 160.400 C 173.280 160.400,174.000 160.220,174.000 160.000 C 174.000 159.780,174.270 159.600,174.600 159.600 C 174.930 159.600,175.200 159.420,175.200 159.200 C 175.200 158.980,175.478 158.800,175.818 158.800 C 176.514 158.800,178.400 157.060,178.400 156.418 C 178.400 156.188,178.580 156.000,178.800 156.000 C 179.020 156.000,179.200 155.730,179.200 155.400 C 179.200 155.070,179.380 154.800,179.600 154.800 C 179.820 154.800,180.000 154.350,180.000 153.800 C 180.000 153.250,180.180 152.800,180.400 152.800 C 180.648 152.800,180.800 150.675,180.800 147.224 C 180.800 143.937,180.636 141.546,180.400 141.400 C 180.180 141.264,180.000 140.803,180.000 140.376 C 180.000 139.949,179.820 139.600,179.600 139.600 C 179.380 139.600,179.200 139.325,179.200 138.989 C 179.200 138.196,175.804 134.800,175.011 134.800 C 174.675 134.800,174.400 134.620,174.400 134.400 C 174.400 134.180,173.961 134.000,173.424 134.000 C 172.887 134.000,172.336 133.820,172.200 133.600 C 172.064 133.380,170.613 133.200,168.976 133.200 C 167.259 133.200,166.000 133.369,166.000 133.600 M213.867 133.467 C 213.720 133.613,213.600 136.403,213.600 139.667 L 213.600 145.600 219.200 145.600 C 222.667 145.600,224.800 145.448,224.800 145.200 C 224.800 144.980,224.993 144.800,225.229 144.800 C 225.992 144.800,226.800 143.683,226.800 142.629 C 226.800 142.063,226.980 141.600,227.200 141.600 C 227.420 141.600,227.600 140.610,227.600 139.400 C 227.600 138.190,227.420 137.200,227.200 137.200 C 226.980 137.200,226.800 136.840,226.800 136.400 C 226.800 135.960,226.620 135.600,226.400 135.600 C 226.180 135.600,226.000 135.342,226.000 135.027 C 226.000 134.712,225.640 134.340,225.200 134.200 C 224.760 134.060,224.400 133.778,224.400 133.573 C 224.400 133.151,214.284 133.049,213.867 133.467 M135.600 189.400 L 135.600 194.800 125.400 194.800 L 115.200 194.800 115.200 199.600 L 115.200 204.400 123.400 204.400 L 131.600 204.400 131.600 209.000 L 131.600 213.600 123.400 213.600 L 115.200 213.600 115.200 223.000 L 115.200 232.400 109.000 232.400 L 102.800 232.400 102.800 208.200 L 102.800 184.000 119.200 184.000 L 135.600 184.000 135.600 189.400 M168.400 184.400 C 168.400 184.620,169.120 184.800,170.000 184.800 C 170.880 184.800,171.600 184.980,171.600 185.200 C 171.600 185.420,171.955 185.600,172.388 185.600 C 173.609 185.600,178.462 188.534,180.796 190.683 C 181.344 191.187,181.929 191.600,182.096 191.600 C 182.263 191.600,182.400 191.843,182.400 192.141 C 182.400 192.438,182.940 193.246,183.600 193.937 C 184.260 194.628,184.800 195.464,184.800 195.796 C 184.800 196.128,184.935 196.401,185.100 196.403 C 185.459 196.407,186.400 198.344,186.400 199.080 C 186.400 199.366,186.580 199.600,186.800 199.600 C 187.020 199.600,187.200 200.039,187.200 200.576 C 187.200 201.113,187.380 201.664,187.600 201.800 C 187.820 201.936,188.000 202.667,188.000 203.424 C 188.000 204.181,188.180 204.800,188.400 204.800 C 188.637 204.800,188.800 206.259,188.800 208.376 C 188.800 210.343,188.620 212.064,188.400 212.200 C 188.180 212.336,188.000 213.067,188.000 213.824 C 188.000 214.581,187.820 215.200,187.600 215.200 C 187.380 215.200,187.200 215.740,187.200 216.400 C 187.200 217.060,187.020 217.600,186.800 217.600 C 186.580 217.600,186.400 217.960,186.400 218.400 C 186.400 218.840,186.220 219.200,186.000 219.200 C 185.780 219.200,185.600 219.520,185.600 219.912 C 185.600 220.303,185.240 220.883,184.800 221.200 C 184.360 221.517,184.000 222.021,184.000 222.320 C 184.000 223.182,179.350 227.409,176.870 228.800 C 176.281 229.130,175.710 229.490,175.600 229.600 C 175.122 230.078,173.561 230.800,173.005 230.800 C 172.672 230.800,172.400 230.980,172.400 231.200 C 172.400 231.420,171.860 231.600,171.200 231.600 C 170.540 231.600,170.000 231.780,170.000 232.000 C 170.000 232.248,167.875 232.400,164.424 232.400 C 161.137 232.400,158.746 232.236,158.600 232.000 C 158.464 231.780,157.823 231.600,157.176 231.600 C 156.529 231.600,156.000 231.420,156.000 231.200 C 156.000 230.980,155.640 230.800,155.200 230.800 C 154.760 230.800,154.400 230.620,154.400 230.400 C 154.400 230.180,154.040 230.000,153.600 230.000 C 153.160 230.000,152.800 229.820,152.800 229.600 C 152.800 229.380,152.522 229.200,152.182 229.200 C 151.842 229.200,151.114 228.750,150.564 228.200 C 150.014 227.650,149.395 227.200,149.189 227.200 C 148.494 227.200,144.569 222.882,143.632 221.088 C 143.320 220.489,142.915 220.000,142.732 220.000 C 142.550 220.000,142.400 219.640,142.400 219.200 C 142.400 218.760,142.220 218.400,142.000 218.400 C 141.780 218.400,141.600 217.973,141.600 217.450 C 141.600 216.928,141.320 215.713,140.978 214.750 C 140.113 212.317,140.106 204.372,140.967 201.836 C 141.315 200.811,141.600 199.708,141.600 199.386 C 141.600 199.064,141.780 198.800,142.000 198.800 C 142.220 198.800,142.400 198.440,142.400 198.000 C 142.400 197.560,142.580 197.200,142.800 197.200 C 143.020 197.200,143.200 196.840,143.200 196.400 C 143.200 195.960,143.380 195.600,143.600 195.600 C 143.820 195.600,144.000 195.352,144.000 195.048 C 144.000 194.137,148.842 189.494,150.900 188.432 C 151.505 188.120,152.000 187.715,152.000 187.532 C 152.000 187.350,152.360 187.200,152.800 187.200 C 153.240 187.200,153.600 187.020,153.600 186.800 C 153.600 186.580,153.960 186.400,154.400 186.400 C 154.840 186.400,155.200 186.220,155.200 186.000 C 155.200 185.780,155.650 185.600,156.200 185.600 C 156.750 185.600,157.200 185.420,157.200 185.200 C 157.200 184.980,157.920 184.800,158.800 184.800 C 159.680 184.800,160.400 184.620,160.400 184.400 C 160.400 184.160,162.000 184.000,164.400 184.000 C 166.800 184.000,168.400 184.160,168.400 184.400 M208.805 202.300 C 208.808 212.365,208.919 221.005,209.052 221.500 L 209.293 222.400 220.447 222.400 L 231.600 222.400 231.600 227.400 L 231.600 232.400 214.400 232.400 L 197.200 232.400 197.200 208.200 L 197.200 184.000 203.000 184.000 L 208.800 184.000 208.805 202.300 M251.200 208.200 L 251.200 232.400 245.000 232.400 L 238.800 232.400 238.800 208.200 L 238.800 184.000 245.000 184.000 L 251.200 184.000 251.200 208.200 M288.000 184.400 C 288.000 184.620,288.720 184.800,289.600 184.800 C 290.480 184.800,291.200 184.980,291.200 185.200 C 291.200 185.420,291.524 185.600,291.920 185.600 C 292.814 185.600,294.793 186.494,294.797 186.900 C 294.799 187.065,295.160 187.200,295.600 187.200 C 296.040 187.200,296.400 187.341,296.400 187.514 C 296.400 187.686,296.895 188.120,297.500 188.479 C 298.105 188.837,299.050 189.521,299.600 189.999 C 300.150 190.477,301.093 191.258,301.696 191.734 C 302.299 192.210,302.794 192.875,302.796 193.212 C 302.798 193.548,303.160 194.083,303.600 194.400 C 304.040 194.717,304.400 195.214,304.400 195.505 C 304.400 195.796,304.760 196.420,305.200 196.892 C 305.640 197.364,306.000 198.167,306.000 198.675 C 306.000 199.184,306.180 199.600,306.400 199.600 C 306.620 199.600,306.800 199.960,306.800 200.400 C 306.800 200.840,306.980 201.200,307.200 201.200 C 307.420 201.200,307.600 201.920,307.600 202.800 C 307.600 203.680,307.780 204.400,308.000 204.400 C 308.241 204.400,308.400 206.067,308.400 208.600 C 308.400 211.133,308.241 212.800,308.000 212.800 C 307.780 212.800,307.600 213.329,307.600 213.976 C 307.600 214.623,307.420 215.264,307.200 215.400 C 306.980 215.536,306.800 216.087,306.800 216.624 C 306.800 217.161,306.620 217.600,306.400 217.600 C 306.180 217.600,306.000 217.960,306.000 218.400 C 306.000 218.840,305.820 219.200,305.600 219.200 C 305.380 219.200,305.200 219.520,305.200 219.912 C 305.200 220.303,304.840 220.883,304.400 221.200 C 303.960 221.517,303.600 222.021,303.600 222.320 C 303.600 223.038,298.814 227.560,296.807 228.738 C 294.148 230.297,293.120 230.800,292.588 230.800 C 292.265 230.800,292.000 230.980,292.000 231.200 C 292.000 231.420,291.460 231.600,290.800 231.600 C 290.140 231.600,289.600 231.780,289.600 232.000 C 289.600 232.248,287.475 232.400,284.024 232.400 C 280.737 232.400,278.346 232.236,278.200 232.000 C 278.064 231.780,277.601 231.600,277.172 231.600 C 276.387 231.600,272.773 230.072,272.400 229.582 C 272.290 229.438,271.977 229.248,271.705 229.160 C 270.925 228.908,266.031 225.038,266.015 224.660 C 266.007 224.474,265.460 223.817,264.800 223.200 C 264.140 222.583,263.600 221.806,263.600 221.473 C 263.600 221.139,263.465 220.807,263.300 220.733 C 262.868 220.541,261.200 217.228,261.200 216.562 C 261.200 216.253,261.020 216.000,260.800 216.000 C 260.580 216.000,260.400 215.471,260.400 214.824 C 260.400 214.177,260.220 213.536,260.000 213.400 C 259.768 213.257,259.600 211.063,259.600 208.176 C 259.600 205.125,259.755 203.200,260.000 203.200 C 260.220 203.200,260.400 202.570,260.400 201.800 C 260.400 201.030,260.580 200.400,260.800 200.400 C 261.020 200.400,261.200 200.040,261.200 199.600 C 261.200 199.160,261.380 198.800,261.600 198.800 C 261.820 198.800,262.000 198.440,262.000 198.000 C 262.000 197.560,262.180 197.200,262.400 197.200 C 262.620 197.200,262.800 196.880,262.800 196.488 C 262.800 196.097,263.160 195.517,263.600 195.200 C 264.040 194.883,264.400 194.375,264.400 194.072 C 264.400 193.769,264.917 193.044,265.548 192.460 C 268.573 189.666,269.605 188.800,269.914 188.800 C 270.098 188.800,270.598 188.475,271.025 188.078 C 271.451 187.680,272.385 187.097,273.100 186.780 C 273.815 186.464,274.400 186.069,274.400 185.902 C 274.400 185.736,274.940 185.600,275.600 185.600 C 276.260 185.600,276.800 185.420,276.800 185.200 C 276.800 184.980,277.520 184.800,278.400 184.800 C 279.280 184.800,280.000 184.620,280.000 184.400 C 280.000 184.160,281.600 184.000,284.000 184.000 C 286.400 184.000,288.000 184.160,288.000 184.400 M158.400 195.725 C 156.520 196.878,154.400 199.031,154.400 199.787 C 154.400 200.124,154.220 200.400,154.000 200.400 C 153.780 200.400,153.600 200.760,153.600 201.200 C 153.600 201.640,153.420 202.000,153.200 202.000 C 152.980 202.000,152.800 202.720,152.800 203.600 C 152.800 204.480,152.620 205.200,152.400 205.200 C 152.169 205.200,152.000 206.467,152.000 208.200 C 152.000 209.933,152.169 211.200,152.400 211.200 C 152.620 211.200,152.800 211.920,152.800 212.800 C 152.800 213.680,152.980 214.400,153.200 214.400 C 153.420 214.400,153.600 214.853,153.600 215.407 C 153.600 216.815,158.385 221.600,159.793 221.600 C 160.347 221.600,160.800 221.780,160.800 222.000 C 160.800 222.235,162.200 222.400,164.200 222.400 C 166.200 222.400,167.600 222.235,167.600 222.000 C 167.600 221.780,168.140 221.600,168.800 221.600 C 169.460 221.600,170.000 221.420,170.000 221.200 C 170.000 220.980,170.225 220.800,170.500 220.800 C 171.874 220.798,175.200 216.286,175.200 214.423 C 175.200 213.970,175.380 213.600,175.600 213.600 C 175.845 213.600,176.000 211.675,176.000 208.624 C 176.000 205.737,175.832 203.543,175.600 203.400 C 175.380 203.264,175.200 202.796,175.200 202.360 C 175.200 196.716,163.998 192.291,158.400 195.725 M279.200 195.200 C 279.200 195.420,278.840 195.600,278.400 195.600 C 277.960 195.600,277.600 195.780,277.600 196.000 C 277.600 196.220,277.375 196.399,277.100 196.397 C 276.486 196.394,274.000 199.199,274.000 199.896 C 274.000 200.173,273.820 200.400,273.600 200.400 C 273.380 200.400,273.200 200.749,273.200 201.176 C 273.200 201.603,273.020 202.064,272.800 202.200 C 272.580 202.336,272.400 203.247,272.400 204.224 C 272.400 205.201,272.220 206.000,272.000 206.000 C 271.780 206.000,271.600 206.990,271.600 208.200 C 271.600 209.410,271.780 210.400,272.000 210.400 C 272.220 210.400,272.400 211.300,272.400 212.400 C 272.400 213.500,272.580 214.400,272.800 214.400 C 273.020 214.400,273.200 214.760,273.200 215.200 C 273.200 215.640,273.380 216.000,273.600 216.000 C 273.820 216.000,274.000 216.281,274.000 216.623 C 274.000 217.405,277.142 220.800,277.865 220.800 C 278.159 220.800,278.400 220.936,278.400 221.103 C 278.400 222.104,285.870 222.878,287.505 222.047 C 287.887 221.852,288.740 221.448,289.400 221.147 C 290.813 220.504,294.000 217.309,294.000 216.536 C 294.000 216.241,294.180 216.000,294.400 216.000 C 294.620 216.000,294.800 215.460,294.800 214.800 C 294.800 214.140,294.980 213.600,295.200 213.600 C 295.447 213.600,295.600 211.533,295.600 208.200 C 295.600 204.867,295.447 202.800,295.200 202.800 C 294.980 202.800,294.800 202.566,294.800 202.280 C 294.800 201.544,293.859 199.607,293.500 199.603 C 293.335 199.601,293.200 199.355,293.200 199.055 C 293.200 198.273,291.557 196.739,289.604 195.697 C 287.782 194.724,279.200 194.314,279.200 195.200 " stroke="none" fill="#040404" fill-rule="evenodd"></path><path id="path1" d="" stroke="none" fill="#080404" fill-rule="evenodd"></path><path id="path2" d="" stroke="none" fill="#080404" fill-rule="evenodd"></path><path id="path3" d="" stroke="none" fill="#080404" fill-rule="evenodd"></path><path id="path4" d="" stroke="none" fill="#080404" fill-rule="evenodd"></path></g></svg>